<!--
  Cabecera del instalador de Windows (NSIS, 150×57): va a la derecha de la
  franja blanca de arriba en las páginas intermedias. El icono y el nombre, sobre
  blanco, porque esa franja es blanca en Windows. `make iconos` la pasa a BMP.
-->
<svg xmlns="http://www.w3.org/2000/svg" viewBox="0 0 150 57" width="150" height="57">
  <defs>
    <style>@import url("https://fonts.googleapis.com/css2?family=Marcellus&amp;display=block");</style>

    
    <linearGradient id="piedra" x1="0" y1="0" x2="0" y2="1">
      <stop offset="0" stop-color="#4a4a52"/>
      <stop offset="1" stop-color="#2b2b31"/>
    </linearGradient>
    
    <linearGradient id="sol" x1="0" y1="0" x2="0" y2="1">
      <stop offset="0" stop-color="#ffd659"/>
      <stop offset="1" stop-color="#f08c1e"/>
    </linearGradient>
    <radialGradient id="brillo" cx="0.5" cy="0.42" r="0.5">
      <stop offset="0" stop-color="#ffe9a3"/>
      <stop offset="0.6" stop-color="#ffc83d"/>
      <stop offset="1" stop-color="#f08c1e"/>
    </radialGradient>
  
  </defs>
  <rect width="150" height="57" fill="#ffffff"/>
  <svg x="56" y="10" width="37" height="37" viewBox="0 0 1024 1024">
    <rect width="1024" height="1024" rx="228" fill="url(#piedra)"/>
  <g fill="url(#sol)">
    <path d="M294.0 460.0L142.0 500.0L294.0 540.0z"/>
    <path d="M321.3 390.7L234.8 385.2L299.9 442.4z"/>
    <path d="M386.1 317.6L250.4 238.4L329.6 374.1z"/>
    <path d="M454.4 287.9L397.2 222.8L402.7 309.3z"/>
    <path d="M552.0 282.0L512.0 130.0L472.0 282.0z"/>
    <path d="M621.3 309.3L626.8 222.8L569.6 287.9z"/>
    <path d="M694.4 374.1L773.6 238.4L637.9 317.6z"/>
    <path d="M724.1 442.4L789.2 385.2L702.7 390.7z"/>
    <path d="M730.0 540.0L882.0 500.0L730.0 460.0z"/>
  </g>
  <circle cx="512" cy="500" r="182" fill="url(#brillo)"/>
  <path d="M768.3 554.5A262 262 0 0 1 255.7 554.5" fill="none" stroke="#fff1d6" stroke-width="14" stroke-linecap="round"/>
  <g>
    <path d="M-64.0 0 Q0 -46.0 64.0 0 Q0 46.0 -64.0 0z" transform="translate(554.3 788.9) rotate(-38.3)" fill="#fff1d6"/>
    <path d="M-64.0 0 Q0 -46.0 64.0 0 Q0 46.0 -64.0 0z" transform="translate(595.1 716.6) rotate(9.0)" fill="#fff1d6"/>
    <path d="M-64.0 0 Q0 -46.0 64.0 0 Q0 46.0 -64.0 0z" transform="translate(673.9 743.0) rotate(-63.7)" fill="#fff1d6"/>
    <path d="M-64.0 0 Q0 -46.0 64.0 0 Q0 46.0 -64.0 0z" transform="translate(679.8 660.2) rotate(-16.3)" fill="#fff1d6"/>
    <path d="M-64.0 0 Q0 -46.0 64.0 0 Q0 46.0 -64.0 0z" transform="translate(762.3 650.4) rotate(-89.0)" fill="#fff1d6"/>
    <path d="M-64.0 0 Q0 -46.0 64.0 0 Q0 46.0 -64.0 0z" transform="translate(732.2 573.0) rotate(-41.7)" fill="#fff1d6"/>
    <path d="M-64.0 0 Q0 -46.0 64.0 0 Q0 46.0 -64.0 0z" transform="translate(469.7 788.9) rotate(218.3)" fill="#fff1d6"/>
    <path d="M-64.0 0 Q0 -46.0 64.0 0 Q0 46.0 -64.0 0z" transform="translate(428.9 716.6) rotate(171.0)" fill="#fff1d6"/>
    <path d="M-64.0 0 Q0 -46.0 64.0 0 Q0 46.0 -64.0 0z" transform="translate(350.1 743.0) rotate(243.7)" fill="#fff1d6"/>
    <path d="M-64.0 0 Q0 -46.0 64.0 0 Q0 46.0 -64.0 0z" transform="translate(344.2 660.2) rotate(196.3)" fill="#fff1d6"/>
    <path d="M-64.0 0 Q0 -46.0 64.0 0 Q0 46.0 -64.0 0z" transform="translate(261.7 650.4) rotate(269.0)" fill="#fff1d6"/>
    <path d="M-64.0 0 Q0 -46.0 64.0 0 Q0 46.0 -64.0 0z" transform="translate(291.8 573.0) rotate(221.7)" fill="#fff1d6"/>
  </g>

  </svg>
  <text x="100" y="35" font-family="Marcellus, Georgia, serif" font-size="15" fill="#2b2b31" letter-spacing="0.5">Apolo</text>
</svg>
